<mxfile host="65bd71144e" modified="2021-01-29T17:00:54.950Z" agent="5.0 (Windows NT 10.0; Win64; x64) AppleWebKit/537.36 (KHTML, like Gecko) Code/1.52.1 Chrome/83.0.4103.122 Electron/9.3.5 Safari/537.36" etag="rPLG13e04rgM05X_d5x5" version="13.10.0" type="embed">
    <diagram id="YLMjfUfvHrZqPBtTVOMM" name="Page-1">
        <mxGraphModel dx="1555" dy="683" grid="1" gridSize="10" guides="1" tooltips="1" connect="1" arrows="1" fold="1" page="1" pageScale="1" pageWidth="850" pageHeight="1100" math="0" shadow="0">
            <root>
                <mxCell id="0"/>
                <mxCell id="1" parent="0"/>
                <mxCell id="P8gG1rITBjQNuqPkPwQO-5" style="edgeStyle=orthogonalEdgeStyle;rounded=0;orthogonalLoop=1;jettySize=auto;html=1;entryX=0.5;entryY=0;entryDx=0;entryDy=0;" parent="1" source="P8gG1rITBjQNuqPkPwQO-1" target="P8gG1rITBjQNuqPkPwQO-3" edge="1">
                    <mxGeometry relative="1" as="geometry"/>
                </mxCell>
                <mxCell id="P8gG1rITBjQNuqPkPwQO-1" value="" style="shape=actor;whiteSpace=wrap;html=1;" parent="1" vertex="1">
                    <mxGeometry x="380" y="90" width="160" height="130" as="geometry"/>
                </mxCell>
                <mxCell id="P8gG1rITBjQNuqPkPwQO-2" value="Todo App User" style="text;html=1;strokeColor=none;fillColor=none;align=center;verticalAlign=middle;whiteSpace=wrap;rounded=0;" parent="1" vertex="1">
                    <mxGeometry x="400" y="170" width="120" height="20" as="geometry"/>
                </mxCell>
                <mxCell id="P8gG1rITBjQNuqPkPwQO-9" style="edgeStyle=orthogonalEdgeStyle;rounded=0;orthogonalLoop=1;jettySize=auto;html=1;entryX=0.5;entryY=0;entryDx=0;entryDy=0;" parent="1" source="P8gG1rITBjQNuqPkPwQO-3" target="P8gG1rITBjQNuqPkPwQO-8" edge="1">
                    <mxGeometry relative="1" as="geometry"/>
                </mxCell>
                <mxCell id="P8gG1rITBjQNuqPkPwQO-3" value="&lt;div&gt;&lt;b&gt;&lt;font style=&quot;font-size: 16px&quot;&gt;Todo App&lt;/font&gt;&lt;/b&gt;&lt;/div&gt;&lt;div&gt;Allows Users to add, update and view their current and previous task&lt;br&gt;&lt;/div&gt;" style="whiteSpace=wrap;html=1;aspect=fixed;" parent="1" vertex="1">
                    <mxGeometry x="385" y="330" width="150" height="150" as="geometry"/>
                </mxCell>
                <mxCell id="P8gG1rITBjQNuqPkPwQO-6" value="View and interact with Todo Items" style="text;html=1;align=center;verticalAlign=middle;resizable=0;points=[];autosize=1;fillColor=#fff2cc;strokeColor=#d6b656;" parent="1" vertex="1">
                    <mxGeometry x="360" y="270" width="200" height="20" as="geometry"/>
                </mxCell>
                <mxCell id="P8gG1rITBjQNuqPkPwQO-8" value="&lt;div&gt;&lt;font size=&quot;1&quot;&gt;&lt;b style=&quot;font-size: 16px&quot;&gt;MongoDB&lt;/b&gt;&lt;/font&gt;&lt;/div&gt;&lt;div&gt;&lt;font style=&quot;font-size: 12px&quot;&gt;&lt;span&gt;Store all the Todo Tasks and their current state&lt;br&gt;&lt;/span&gt;&lt;b&gt;&lt;/b&gt;&lt;/font&gt;&lt;/div&gt;" style="whiteSpace=wrap;html=1;aspect=fixed;" parent="1" vertex="1">
                    <mxGeometry x="385" y="590" width="150" height="150" as="geometry"/>
                </mxCell>
                <mxCell id="P8gG1rITBjQNuqPkPwQO-11" value="Get and store Todo tasks and state" style="text;html=1;align=center;verticalAlign=middle;resizable=0;points=[];autosize=1;fillColor=#fff2cc;strokeColor=#d6b656;" parent="1" vertex="1">
                    <mxGeometry x="355" y="530" width="210" height="20" as="geometry"/>
                </mxCell>
            </root>
        </mxGraphModel>
    </diagram>
</mxfile>